<svg width="102" height="21" viewBox="0 0 102 21" fill="none" xmlns="http://www.w3.org/2000/svg">
<path d="M6.79869 7.36117e-06H0.315265C0.0271128 7.36117e-06 -0.0635111 0.13371 0.0433934 0.401115L3.18051 8.24347C3.28741 8.51087 3.48494 8.64458 3.77309 8.64458L16.7399 8.64458C17.0281 8.64458 17.1187 8.51087 17.0118 8.24347L13.8747 0.401115C13.7678 0.13371 13.5703 7.36117e-06 13.2821 7.36117e-06L6.79869 7.36117e-06Z" fill="#1F1F1F"/>
<path d="M10.2565 10.4167H16.74C17.0281 10.4167 17.1187 10.5504 17.0118 10.8178L13.8747 18.6602C13.7678 18.9276 13.5703 19.0613 13.2821 19.0613L0.315289 19.0613C0.027137 19.0613 -0.0634872 18.9276 0.0434173 18.6602L3.18053 10.8178C3.28744 10.5504 3.48496 10.4167 3.77312 10.4167L10.2565 10.4167Z" fill="#1F1F1F"/>
<path d="M22.7941 16.5103C22.6581 16.5103 22.5424 16.4695 22.4472 16.3879C22.3656 16.2926 22.3248 16.177 22.3248 16.0409V2.71478C22.3248 2.56512 22.3656 2.44948 22.4472 2.36785C22.5424 2.27261 22.6581 2.225 22.7941 2.225H27.9777C29.5151 2.225 30.7259 2.59914 31.6102 3.34741C32.4946 4.09569 32.9367 5.1773 32.9367 6.59222C32.9367 8.00715 32.4946 9.08876 31.6102 9.83703C30.7395 10.5717 29.5287 10.939 27.9777 10.939H24.3655V16.0409C24.3655 16.177 24.3179 16.2926 24.2227 16.3879C24.1274 16.4695 24.0118 16.5103 23.8757 16.5103H22.7941ZM27.8756 9.22481C28.8688 9.22481 29.6171 9.00032 30.1205 8.55136C30.6375 8.10239 30.896 7.44934 30.896 6.59222C30.896 5.73511 30.6443 5.08206 30.1409 4.63309C29.6375 4.17052 28.8824 3.93923 27.8756 3.93923H24.3451V9.22481H27.8756Z" fill="#1F1F1F"/>
<path d="M36.8925 16.7144C36.2258 16.7144 35.6068 16.5783 35.0354 16.3062C34.4639 16.0341 34.0082 15.6668 33.6681 15.2042C33.3415 14.7281 33.1783 14.2043 33.1783 13.6329C33.1783 12.7349 33.5456 12.0002 34.2803 11.4288C35.0286 10.8438 36.0353 10.4629 37.3006 10.286L40.3413 9.85744V9.26562C40.3413 7.8779 39.5454 7.18405 37.9537 7.18405C37.355 7.18405 36.8652 7.31329 36.4843 7.57179C36.1034 7.81668 35.8177 8.10919 35.6272 8.44932C35.5864 8.57176 35.5319 8.6602 35.4639 8.71462C35.4095 8.76904 35.3279 8.79625 35.219 8.79625H34.3415C34.2191 8.79625 34.1102 8.75543 34.015 8.6738C33.9334 8.57857 33.8925 8.46972 33.8925 8.34728C33.9061 8.02076 34.0558 7.65342 34.3415 7.24527C34.6408 6.82351 35.0966 6.46298 35.7088 6.16367C36.321 5.85075 37.0761 5.69429 37.9741 5.69429C39.4978 5.69429 40.593 6.05482 41.2597 6.77589C41.9263 7.48336 42.2597 8.36769 42.2597 9.42888V16.0409C42.2597 16.177 42.212 16.2926 42.1168 16.3879C42.0352 16.4695 41.9263 16.5103 41.7903 16.5103H40.8515C40.7155 16.5103 40.5998 16.4695 40.5046 16.3879C40.423 16.2926 40.3822 16.177 40.3822 16.0409V15.1634C40.0828 15.5988 39.6475 15.9661 39.0761 16.2654C38.5047 16.5647 37.7768 16.7144 36.8925 16.7144ZM37.321 15.1838C38.2053 15.1838 38.9264 14.8981 39.4842 14.3267C40.0556 13.7417 40.3413 12.905 40.3413 11.8166V11.2452L37.9741 11.5921C37.0081 11.7281 36.2802 11.9594 35.7904 12.2859C35.3007 12.5989 35.0558 13.0002 35.0558 13.49C35.0558 14.0342 35.2803 14.456 35.7292 14.7553C36.1782 15.041 36.7088 15.1838 37.321 15.1838Z" fill="#1F1F1F"/>
<path d="M48.5199 21C47.4042 21 46.5063 20.8095 45.826 20.4286C45.1458 20.0612 44.6628 19.6395 44.3771 19.1633C44.0914 18.6871 43.9349 18.2586 43.9077 17.8776C43.8941 17.7416 43.9349 17.6259 44.0302 17.5307C44.139 17.4355 44.2547 17.3879 44.3771 17.3879H45.3567C45.4791 17.3879 45.5812 17.4151 45.6628 17.4695C45.7444 17.5375 45.8124 17.6532 45.8669 17.8164C46.0301 18.2518 46.2954 18.6259 46.6628 18.9388C47.0437 19.2654 47.6287 19.4286 48.4178 19.4286C49.4246 19.4286 50.1661 19.2109 50.6422 18.7756C51.1184 18.3538 51.3565 17.5987 51.3565 16.5103V15.1226C51.0028 15.5716 50.5538 15.9321 50.0096 16.2042C49.4654 16.4627 48.8192 16.592 48.0709 16.592C46.6287 16.592 45.5471 16.1362 44.8261 15.2246C44.1186 14.2995 43.7445 13.1295 43.7037 11.7145L43.6832 11.1431L43.7037 10.5921C43.7445 9.19079 44.1254 8.02756 44.8465 7.10242C45.5676 6.16367 46.6424 5.69429 48.0709 5.69429C49.4994 5.69429 50.615 6.21809 51.4177 7.26568V6.38815C51.4177 6.2521 51.4585 6.13645 51.5402 6.04122C51.6354 5.94598 51.7511 5.89837 51.8871 5.89837H52.8259C52.9619 5.89837 53.0776 5.94598 53.1728 6.04122C53.268 6.13645 53.3156 6.2521 53.3156 6.38815V16.2858C53.3156 19.4286 51.717 21 48.5199 21ZM48.479 14.9593C49.4042 14.9593 50.1048 14.6532 50.581 14.041C51.0572 13.4288 51.3157 12.7009 51.3565 11.8574C51.3701 11.7349 51.3769 11.4969 51.3769 11.1431C51.3769 10.803 51.3701 10.5717 51.3565 10.4493C51.3157 9.60575 51.0572 8.87788 50.581 8.26565C50.1184 7.65342 49.4178 7.34731 48.479 7.34731C47.5131 7.34731 46.8124 7.64662 46.3771 8.24524C45.9417 8.84386 45.7036 9.63296 45.6628 10.6125L45.6424 11.1431L45.6628 11.6941C45.7036 12.6601 45.9417 13.4492 46.3771 14.0614C46.8124 14.66 47.5131 14.9593 48.479 14.9593Z" fill="#1F1F1F"/>
<path d="M59.5742 16.7144C58.1729 16.7144 57.0505 16.2858 56.207 15.4287C55.3771 14.558 54.9213 13.3744 54.8397 11.8778L54.8193 11.1839L54.8397 10.5105C54.9349 9.04114 55.3975 7.8711 56.2274 7.00038C57.0709 6.12965 58.1797 5.69429 59.5538 5.69429C61.064 5.69429 62.234 6.17727 63.0639 7.14323C63.8938 8.09559 64.3088 9.38807 64.3088 11.0207V11.3676C64.3088 11.5037 64.2612 11.6193 64.166 11.7145C64.0843 11.7962 63.9755 11.837 63.8394 11.837H56.7784V12.0206C56.8192 12.905 57.0845 13.6601 57.5743 14.2859C58.0777 14.8981 58.7375 15.2042 59.5538 15.2042C60.1797 15.2042 60.6899 15.0818 61.0844 14.8369C61.4926 14.5784 61.7919 14.3131 61.9823 14.041C62.1048 13.8777 62.1932 13.7825 62.2476 13.7553C62.3157 13.7145 62.4313 13.6941 62.5946 13.6941H63.5945C63.717 13.6941 63.819 13.7281 63.9007 13.7961C63.9823 13.8641 64.0231 13.9594 64.0231 14.0818C64.0231 14.3811 63.8326 14.7417 63.4517 15.1634C63.0843 15.5852 62.5605 15.9525 61.8803 16.2654C61.2136 16.5647 60.445 16.7144 59.5742 16.7144ZM62.3701 10.4289V10.3676C62.3701 9.42888 62.1116 8.667 61.5946 8.08198C61.0912 7.48336 60.4109 7.18405 59.5538 7.18405C58.6967 7.18405 58.0165 7.48336 57.5131 8.08198C57.0233 8.667 56.7784 9.42888 56.7784 10.3676V10.4289H62.3701Z" fill="#1F1F1F"/>
<path d="M66.4632 16.5103C66.3272 16.5103 66.2116 16.4695 66.1163 16.3879C66.0347 16.2926 65.9939 16.177 65.9939 16.0409V2.71478C65.9939 2.56512 66.0347 2.44948 66.1163 2.36785C66.2116 2.27261 66.3272 2.225 66.4632 2.225H71.0958C73.1501 2.225 74.6331 2.68757 75.5446 3.61271C76.4562 4.52425 76.9323 5.90517 76.9732 7.75546C76.9868 8.15001 76.9936 8.6806 76.9936 9.34725C76.9936 10.0139 76.9868 10.5513 76.9732 10.9595C76.9323 12.2519 76.7147 13.3063 76.3201 14.1226C75.9392 14.9253 75.3338 15.524 74.5038 15.9185C73.6739 16.3131 72.5719 16.5103 71.1978 16.5103H66.4632ZM71.0958 14.7757C72.0345 14.7757 72.776 14.6464 73.3202 14.3879C73.878 14.1294 74.2794 13.7213 74.5242 13.1635C74.7827 12.5921 74.9256 11.8302 74.9528 10.8778C74.98 10.0615 74.9936 9.55133 74.9936 9.34725C74.9936 9.12957 74.98 8.62618 74.9528 7.83709C74.9256 6.49019 74.6059 5.51062 73.9937 4.89839C73.3814 4.27256 72.3815 3.95964 70.9937 3.95964H67.9938V14.7757H71.0958Z" fill="#1F1F1F"/>
<path d="M81.7374 16.7144C81.0707 16.7144 80.4517 16.5783 79.8803 16.3062C79.3089 16.0341 78.8531 15.6668 78.513 15.2042C78.1865 14.7281 78.0232 14.2043 78.0232 13.6329C78.0232 12.7349 78.3905 12.0002 79.1252 11.4288C79.8735 10.8438 80.8803 10.4629 82.1455 10.286L85.1863 9.85744V9.26562C85.1863 7.8779 84.3904 7.18405 82.7986 7.18405C82.2 7.18405 81.7102 7.31329 81.3292 7.57179C80.9483 7.81668 80.6626 8.10919 80.4721 8.44932C80.4313 8.57176 80.3769 8.6602 80.3089 8.71462C80.2544 8.76904 80.1728 8.79625 80.064 8.79625H79.1864C79.064 8.79625 78.9551 8.75543 78.8599 8.6738C78.7783 8.57857 78.7375 8.46972 78.7375 8.34728C78.7511 8.02076 78.9007 7.65342 79.1864 7.24527C79.4857 6.82351 79.9415 6.46298 80.5537 6.16367C81.166 5.85075 81.9211 5.69429 82.819 5.69429C84.3428 5.69429 85.438 6.05482 86.1046 6.77589C86.7713 7.48336 87.1046 8.36769 87.1046 9.42888V16.0409C87.1046 16.177 87.057 16.2926 86.9617 16.3879C86.8801 16.4695 86.7713 16.5103 86.6352 16.5103H85.6965C85.5604 16.5103 85.4448 16.4695 85.3495 16.3879C85.2679 16.2926 85.2271 16.177 85.2271 16.0409V15.1634C84.9278 15.5988 84.4924 15.9661 83.921 16.2654C83.3496 16.5647 82.6217 16.7144 81.7374 16.7144ZM82.1659 15.1838C83.0503 15.1838 83.7713 14.8981 84.3291 14.3267C84.9006 13.7417 85.1863 12.905 85.1863 11.8166V11.2452L82.819 11.5921C81.853 11.7281 81.1252 11.9594 80.6354 12.2859C80.1456 12.5989 79.9007 13.0002 79.9007 13.49C79.9007 14.0342 80.1252 14.456 80.5741 14.7553C81.0231 15.041 81.5537 15.1838 82.1659 15.1838Z" fill="#1F1F1F"/>
<path d="M89.4873 16.5103C89.3513 16.5103 89.2356 16.4695 89.1404 16.3879C89.0588 16.2926 89.018 16.177 89.018 16.0409V6.38815C89.018 6.2521 89.0588 6.13645 89.1404 6.04122C89.2356 5.94598 89.3513 5.89837 89.4873 5.89837H90.4261C90.5621 5.89837 90.6778 5.94598 90.773 6.04122C90.8682 6.13645 90.9159 6.2521 90.9159 6.38815V7.28608C91.4737 6.36094 92.426 5.89837 93.7729 5.89837H94.5688C94.7049 5.89837 94.8137 5.94598 94.8953 6.04122C94.9906 6.12285 95.0382 6.23169 95.0382 6.36774V7.20445C95.0382 7.3405 94.9906 7.44934 94.8953 7.53097C94.8137 7.61261 94.7049 7.65342 94.5688 7.65342H93.3444C92.6097 7.65342 92.0315 7.8711 91.6097 8.30646C91.188 8.72822 90.9771 9.30644 90.9771 10.0411V16.0409C90.9771 16.177 90.9295 16.2926 90.8342 16.3879C90.739 16.4695 90.6234 16.5103 90.4873 16.5103H89.4873Z" fill="#1F1F1F"/>
<path d="M99.8928 16.5103C97.7432 16.5103 96.6684 15.3131 96.6684 12.9186V7.53097H95.0766C94.9406 7.53097 94.8249 7.49016 94.7297 7.40853C94.6481 7.31329 94.6072 7.19765 94.6072 7.0616V6.36774C94.6072 6.23169 94.6481 6.12285 94.7297 6.04122C94.8249 5.94598 94.9406 5.89837 95.0766 5.89837H96.6684V2.49029C96.6684 2.35424 96.7092 2.2454 96.7909 2.16377C96.8861 2.06854 97.0017 2.02092 97.1378 2.02092H98.0969C98.233 2.02092 98.3418 2.06854 98.4235 2.16377C98.5187 2.2454 98.5663 2.35424 98.5663 2.49029V5.89837H101.097C101.233 5.89837 101.342 5.94598 101.423 6.04122C101.519 6.12285 101.566 6.23169 101.566 6.36774V7.0616C101.566 7.19765 101.519 7.31329 101.423 7.40853C101.342 7.49016 101.233 7.53097 101.097 7.53097H98.5663V12.7757C98.5663 13.456 98.682 13.973 98.9133 14.3267C99.1445 14.6668 99.5255 14.8369 100.056 14.8369H101.301C101.437 14.8369 101.546 14.8845 101.627 14.9798C101.723 15.0614 101.77 15.1702 101.77 15.3063V16.0409C101.77 16.177 101.723 16.2926 101.627 16.3879C101.546 16.4695 101.437 16.5103 101.301 16.5103H99.8928Z" fill="#1F1F1F"/>
</svg>
